<?xml version="1.0" encoding="UTF-8" standalone="no"?>
<svg
   xmlns:dc="http://purl.org/dc/elements/1.1/"
   xmlns:cc="http://creativecommons.org/ns#"
   xmlns:rdf="http://www.w3.org/1999/02/22-rdf-syntax-ns#"
   xmlns:svg="http://www.w3.org/2000/svg"
   xmlns="http://www.w3.org/2000/svg"
   xmlns:sodipodi="http://sodipodi.sourceforge.net/DTD/sodipodi-0.dtd"
   xmlns:inkscape="http://www.inkscape.org/namespaces/inkscape"
   version="1.1"
   width="400"
   height="400"
   id="svg3382"
   inkscape:version="0.48.4 r9939"
   sodipodi:docname="freifunk.svg">
  <metadata
     id="metadata3400">
    <rdf:RDF>
      <cc:Work
         rdf:about="">
        <dc:format>image/svg+xml</dc:format>
        <dc:type
           rdf:resource="http://purl.org/dc/dcmitype/StillImage" />
        <dc:title />
      </cc:Work>
    </rdf:RDF>
  </metadata>
  <defs
     id="defs3398" />
  <sodipodi:namedview
     pagecolor="#ffffff"
     bordercolor="#666666"
     borderopacity="1"
     objecttolerance="10"
     gridtolerance="10"
     guidetolerance="10"
     inkscape:pageopacity="0"
     inkscape:pageshadow="2"
     inkscape:window-width="695"
     inkscape:window-height="480"
     id="namedview3396"
     showgrid="false"
     inkscape:zoom="0.6925"
     inkscape:cx="368.37833"
     inkscape:cy="205.74771"
     inkscape:window-x="75"
     inkscape:window-y="34"
     inkscape:window-maximized="0"
     inkscape:current-layer="text3394" />
  <g
     id="g3402"
     transform="translate(-1.1045156,293.793)">
    <path
       style="fill:none;stroke:#dc0067;stroke-width:3.80731225px"
       d="m 211.39342,-102.29859 c 0,46.25985 -37.50102,83.76087 -83.76087,83.76087 -46.259848,0 -83.760868,-37.50102 -83.760868,-83.76087 0,-46.25985 37.50102,-83.76087 83.760868,-83.76087 46.25985,0 83.76087,37.50102 83.76087,83.76087 z"
       id="circle3384"
       inkscape:connector-curvature="0" />
    <path
       style="fill:none;stroke:#dc0067;stroke-width:3.80731225px"
       d="m 356.07128,-140.37171 c 0,46.259848 -37.50102,83.760868 -83.76087,83.760868 -46.25984,0 -83.76086,-37.50102 -83.76086,-83.760868 0,-46.25985 37.50102,-83.76087 83.76086,-83.76087 46.25985,0 83.76087,37.50102 83.76087,83.76087 z"
       id="circle3386"
       inkscape:connector-curvature="0" />
    <path
       style="fill:none;stroke:#dc0067;stroke-width:22.84387398px"
       d="m 382.72247,-140.37171 c 0,60.978894 -49.43316,110.412053 -110.41206,110.412053 -60.97889,0 -110.41205,-49.433159 -110.41205,-110.412053 0,-60.97889 49.43316,-110.41205 110.41205,-110.41205 60.9789,0 110.41206,49.43316 110.41206,110.41205 z"
       id="circle3388"
       inkscape:connector-curvature="0" />
    <path
       style="fill:#ffcb05"
       d="m 104.78868,-109.91321 -15.229252,15.229246 19.036562,0 22.84387,-22.843876 -22.84387,-22.84387 -19.036562,0 15.229252,15.22925 -30.458501,0 0,15.22925 z"
       id="polygon3390"
       inkscape:connector-curvature="0" />
    <path
       style="fill:#ffcb05"
       d="m 298.9616,-83.262027 -22.84387,-22.843873 49.49505,0 0,-22.84387 -49.49505,0 22.84387,-22.84388 -30.4585,0 -34.26581,34.26581 34.26581,34.265813 z"
       id="polygon3392"
       inkscape:connector-curvature="0" />
    <g
       style="font-size:18px;font-weight:bold;text-anchor:middle;font-family:helvetica"
       id="text3394">
      <path
         d="m 34.699985,36.584546 -5.688125,0 0,-3.632176 c 0,-1.918881 0.822384,-2.878328 2.604202,-2.878328 0.822379,0 1.918885,0.06853 2.741265,0.205595 l 0,-7.19582 c -1.781819,-0.137063 -4.180429,-0.205595 -5.48253,-0.205595 -6.373433,0 -9.457363,3.015399 -9.457363,9.251769 l 0,4.454555 -5.208403,0 0,6.373441 5.208403,0 0,29.879786 9.594426,0 0,-29.879786 5.688125,0 0,-6.373441"
         style="font-size:18px;font-weight:bold;text-anchor:middle;font-family:helvetica"
         id="path3013"
         inkscape:connector-curvature="0" />
      <path
         d="m 40.455571,35.830698 0,37.007075 9.594427,0 0,-19.668575 c 0,-5.619589 2.8098,-8.429389 8.429389,-8.429389 1.027974,0 1.71329,0.06853 3.015391,0.274126 l 0,-9.73149 c -0.548253,-0.06853 -0.890911,-0.06853 -1.165037,-0.06853 -4.38602,0 -8.223799,2.878331 -10.279743,7.881136 l 0,-7.264352 -9.594427,0"
         style="font-size:18px;font-weight:bold;text-anchor:middle;font-family:helvetica"
         id="path3015"
         inkscape:connector-curvature="0" />
      <path
         d="m 98.684962,57.349627 c 0.06853,-0.82238 0.06853,-1.165038 0.06853,-1.644759 0,-3.700704 -0.548253,-7.127292 -1.439164,-9.73149 -2.467138,-6.716091 -8.429397,-10.759464 -15.899336,-10.759464 -10.622389,0 -17.132904,7.675552 -17.132904,20.079764 0,11.855959 6.441983,19.120322 16.92731,19.120322 8.292318,0 15.008424,-4.728689 17.132904,-11.993033 l -9.457363,0 c -1.165038,2.946855 -3.837775,4.66015 -7.332883,4.66015 -2.741265,0 -4.934281,-1.165042 -6.304909,-3.220986 -0.890911,-1.370633 -1.23357,-3.015395 -1.370633,-6.510504 l 24.808447,0 M 74.013578,50.976186 c 0.616785,-5.619589 3.015396,-8.429389 7.264352,-8.429389 2.398603,0 4.591619,1.165041 5.962251,3.083923 0.890911,1.370632 1.302101,2.8098 1.507696,5.345466 l -14.734299,0"
         style="font-size:18px;font-weight:bold;text-anchor:middle;font-family:helvetica"
         id="path3017"
         inkscape:connector-curvature="0" />
      <path
         d="m 115.10792,35.830698 -9.59443,0 0,37.007075 9.59443,0 0,-37.007075 m 0,-12.952476 -9.59443,0 0,8.566453 9.59443,0 0,-8.566453"
         style="font-size:18px;font-weight:bold;text-anchor:middle;font-family:helvetica"
         id="path3019"
         inkscape:connector-curvature="0" />
      <path
         d="m 141.37909,36.584546 -5.68813,0 0,-3.632176 c 0,-1.918881 0.82239,-2.878328 2.6042,-2.878328 0.82238,0 1.91889,0.06853 2.74127,0.205595 l 0,-7.19582 c -1.78182,-0.137063 -4.18043,-0.205595 -5.48253,-0.205595 -6.37343,0 -9.45736,3.015399 -9.45736,9.251769 l 0,4.454555 -5.2084,0 0,6.373441 5.2084,0 0,29.879786 9.59442,0 0,-29.879786 5.68813,0 0,-6.373441"
         style="font-size:18px;font-weight:bold;text-anchor:middle;font-family:helvetica"
         id="path3021"
         inkscape:connector-curvature="0" />
      <path
         d="m 179.89279,72.837773 0,-37.007075 -9.59443,0 0,23.163688 c 0,4.386019 -3.08393,7.264351 -7.74407,7.264351 -4.1119,0 -6.16785,-2.193015 -6.16785,-6.647567 l 0,-23.780472 -9.59443,0 0,25.767889 c 0,8.155255 4.5231,12.815413 12.40423,12.815413 5.0028,0 8.36086,-1.850358 11.10212,-5.962251 l 0,4.386024 9.59443,0"
         style="font-size:18px;font-weight:bold;text-anchor:middle;font-family:helvetica"
         id="path3023"
         inkscape:connector-curvature="0" />
      <path
         d="m 189.02998,35.830698 0,37.007075 9.59443,0 0,-22.204245 c 0,-4.38602 3.08393,-7.264352 7.74407,-7.264352 4.11189,0 6.16784,2.261548 6.16784,6.647567 l 0,22.82103 9.59443,0 0,-24.808447 c 0,-8.155255 -4.52309,-12.815412 -12.40422,-12.815412 -5.0028,0 -8.36086,1.850357 -11.10212,5.962251 l 0,-5.345467 -9.59443,0"
         style="font-size:18px;font-weight:bold;text-anchor:middle;font-family:helvetica"
         id="path3025"
         inkscape:connector-curvature="0" />
      <path
         d="m 240.24559,50.222338 0,-27.344116 -9.59443,0 0,49.959551 9.59443,0 0,-12.130097 3.83777,-4.180429 8.84058,16.310526 11.23918,0 -13.50073,-23.026624 12.60982,-13.980451 -10.89653,0 -12.13009,14.39164"
         style="font-size:18px;font-weight:bold;text-anchor:middle;font-family:helvetica"
         id="path3027"
         inkscape:connector-curvature="0" />
      <path
         d="m 279.42105,62.832156 -10.27975,0 0,10.005617 10.27975,0 0,-10.005617"
         style="font-size:18px;font-weight:bold;text-anchor:middle;font-family:helvetica"
         id="path3029"
         inkscape:connector-curvature="0" />
      <path
         d="m 288.07959,35.830698 0,37.007075 9.59442,0 0,-22.204245 c 0,-4.38602 3.08393,-7.264352 7.74408,-7.264352 4.11189,0 6.16784,2.261548 6.16784,6.647567 l 0,22.82103 9.59443,0 0,-24.808447 c 0,-8.155255 -4.5231,-12.815412 -12.40423,-12.815412 -5.0028,0 -8.36085,1.850357 -11.10212,5.962251 l 0,-5.345467 -9.59442,0"
         style="font-size:18px;font-weight:bold;text-anchor:middle;font-family:helvetica"
         id="path3031"
         inkscape:connector-curvature="0" />
      <path
         d="m 361.56797,57.349627 c 0.0685,-0.82238 0.0685,-1.165038 0.0685,-1.644759 0,-3.700704 -0.54825,-7.127292 -1.43916,-9.73149 -2.46714,-6.716091 -8.4294,-10.759464 -15.89934,-10.759464 -10.62239,0 -17.1329,7.675552 -17.1329,20.079764 0,11.855959 6.44198,19.120322 16.92731,19.120322 8.29232,0 15.00842,-4.728689 17.1329,-11.993033 l -9.45736,0 c -1.16504,2.946855 -3.83778,4.66015 -7.33288,4.66015 -2.74127,0 -4.93428,-1.165042 -6.30491,-3.220986 -0.89091,-1.370633 -1.23357,-3.015395 -1.37064,-6.510504 l 24.80845,0 m -24.67138,-6.373441 c 0.61678,-5.619589 3.01539,-8.429389 7.26435,-8.429389 2.3986,0 4.59162,1.165041 5.96225,3.083923 0.89091,1.370632 1.3021,2.8098 1.5077,5.345466 l -14.7343,0"
         style="font-size:18px;font-weight:bold;text-anchor:middle;font-family:helvetica"
         id="path3033"
         inkscape:connector-curvature="0" />
      <path
         d="m 384.4329,36.584546 -5.34546,0 0,-9.937085 -9.59443,0 0,9.937085 -4.72868,0 0,6.373441 4.72868,0 0,22.752497 c 0,5.82518 3.08392,8.703516 9.38883,8.703516 2.12448,0 3.83777,-0.20559 5.55106,-0.753848 l 0,-6.716099 c -0.95944,0.137064 -1.50769,0.205595 -2.19301,0.205595 -2.53567,0 -3.15245,-0.753851 -3.15245,-4.043365 l 0,-20.148296 5.34546,0 0,-6.373441"
         style="font-size:18px;font-weight:bold;text-anchor:middle;font-family:helvetica"
         id="path3035"
         inkscape:connector-curvature="0" />
    </g>
  </g>
</svg>
